<mxfile host="app.diagrams.net" modified="2021-03-24T13:32:07.656Z" agent="5.0 (Windows NT 10.0; Win64; x64) AppleWebKit/537.36 (KHTML, like Gecko) Chrome/89.0.4389.90 Safari/537.36" etag="IYo4RJfe5X9cpaBkZzIF" version="14.5.1" type="github">
  <diagram id="z2r0lOu7MSDwANND2US1" name="第 1 页">
    <mxGraphModel dx="1422" dy="706" grid="0" gridSize="10" guides="1" tooltips="1" connect="1" arrows="1" fold="1" page="1" pageScale="1" pageWidth="827" pageHeight="1169" math="0" shadow="1">
      <root>
        <mxCell id="0" />
        <mxCell id="1" parent="0" />
        <mxCell id="Qm1IVXFwwa65ODmuzejj-12" value="" style="endArrow=classic;html=1;" edge="1" parent="1">
          <mxGeometry width="50" height="50" relative="1" as="geometry">
            <mxPoint x="120" y="120" as="sourcePoint" />
            <mxPoint x="120" y="440" as="targetPoint" />
          </mxGeometry>
        </mxCell>
        <mxCell id="Qm1IVXFwwa65ODmuzejj-13" value="&lt;font style=&quot;font-size: 16px&quot;&gt;直接运行协议（无限制）&lt;/font&gt;" style="text;html=1;align=center;verticalAlign=middle;resizable=0;points=[];autosize=1;" vertex="1" parent="1">
          <mxGeometry x="280" y="70" width="190" height="20" as="geometry" />
        </mxCell>
        <mxCell id="Qm1IVXFwwa65ODmuzejj-16" value="" style="group" vertex="1" connectable="0" parent="1">
          <mxGeometry x="200" y="120" width="360" height="350" as="geometry" />
        </mxCell>
        <mxCell id="Qm1IVXFwwa65ODmuzejj-10" value="&lt;font style=&quot;font-size: 16px&quot;&gt;操作系统&lt;/font&gt;" style="text;html=1;align=center;verticalAlign=middle;resizable=0;points=[];autosize=1;" vertex="1" parent="Qm1IVXFwwa65ODmuzejj-16">
          <mxGeometry x="40" y="330" width="80" height="20" as="geometry" />
        </mxCell>
        <mxCell id="Qm1IVXFwwa65ODmuzejj-11" value="&lt;font style=&quot;font-size: 16px&quot;&gt;程序&lt;/font&gt;" style="text;html=1;align=center;verticalAlign=middle;resizable=0;points=[];autosize=1;" vertex="1" parent="Qm1IVXFwwa65ODmuzejj-16">
          <mxGeometry x="255" y="330" width="50" height="20" as="geometry" />
        </mxCell>
        <mxCell id="Qm1IVXFwwa65ODmuzejj-14" value="" style="group" vertex="1" connectable="0" parent="Qm1IVXFwwa65ODmuzejj-16">
          <mxGeometry width="160" height="320" as="geometry" />
        </mxCell>
        <mxCell id="Qm1IVXFwwa65ODmuzejj-4" value="" style="rounded=0;whiteSpace=wrap;html=1;" vertex="1" parent="Qm1IVXFwwa65ODmuzejj-14">
          <mxGeometry width="160" height="320" as="geometry" />
        </mxCell>
        <mxCell id="Qm1IVXFwwa65ODmuzejj-6" value="&lt;font style=&quot;font-size: 16px&quot;&gt;1.在进程列表创建条目&lt;br&gt;2.为程序分配内存&lt;br&gt;3.将程序加载到内存中&lt;br&gt;4.根据 argc/argv 设置程序栈&lt;/font&gt;" style="rounded=0;whiteSpace=wrap;html=1;fillColor=#d5e8d4;strokeColor=#82b366;align=left;" vertex="1" parent="Qm1IVXFwwa65ODmuzejj-14">
          <mxGeometry width="160" height="150" as="geometry" />
        </mxCell>
        <mxCell id="Qm1IVXFwwa65ODmuzejj-7" value="&lt;font style=&quot;font-size: 16px&quot;&gt;清除寄存器&lt;br&gt;执行call main()方法&lt;/font&gt;" style="rounded=0;whiteSpace=wrap;html=1;fillColor=#f8cecc;strokeColor=#b85450;" vertex="1" parent="Qm1IVXFwwa65ODmuzejj-14">
          <mxGeometry y="146" width="160" height="60" as="geometry" />
        </mxCell>
        <mxCell id="Qm1IVXFwwa65ODmuzejj-8" value="&lt;font style=&quot;font-size: 16px&quot;&gt;释放进程的内存将进程从列表清除&lt;/font&gt;" style="rounded=0;whiteSpace=wrap;html=1;fillColor=#e1d5e7;strokeColor=#9673a6;" vertex="1" parent="Qm1IVXFwwa65ODmuzejj-14">
          <mxGeometry y="260" width="160" height="60" as="geometry" />
        </mxCell>
        <mxCell id="Qm1IVXFwwa65ODmuzejj-15" value="" style="group" vertex="1" connectable="0" parent="Qm1IVXFwwa65ODmuzejj-16">
          <mxGeometry x="200" width="160" height="320" as="geometry" />
        </mxCell>
        <mxCell id="Qm1IVXFwwa65ODmuzejj-5" value="" style="rounded=0;whiteSpace=wrap;html=1;" vertex="1" parent="Qm1IVXFwwa65ODmuzejj-15">
          <mxGeometry width="160" height="320" as="geometry" />
        </mxCell>
        <mxCell id="Qm1IVXFwwa65ODmuzejj-9" value="&lt;font style=&quot;font-size: 16px&quot;&gt;执行main()&lt;br&gt;从main 中执行return&lt;/font&gt;" style="rounded=0;whiteSpace=wrap;html=1;fillColor=#ffe6cc;strokeColor=#d79b00;" vertex="1" parent="Qm1IVXFwwa65ODmuzejj-15">
          <mxGeometry y="200" width="160" height="60" as="geometry" />
        </mxCell>
      </root>
    </mxGraphModel>
  </diagram>
</mxfile>
